HIERARCHY
ROOT hip
{
  OFFSET 0 0 0
  CHANNELS 6 Xposition Yposition Zposition Zrotation Yrotation Xrotation
  JOINT abdomen
  {
    OFFSET 0 20.6881 -0.73152
    CHANNELS 3 Zrotation Xrotation Yrotation
    JOINT chest
    {
      OFFSET 0 11.7043 -0.48768
      CHANNELS 3 Zrotation Xrotation Yrotation
      JOINT neck
      {
        OFFSET 0 22.1894 -2.19456
        CHANNELS 3 Zrotation Xrotation Yrotation
        JOINT head
        {
          OFFSET -0.24384 7.07133 1.2192
          CHANNELS 3 Zrotation Xrotation Yrotation
          JOINT leftEye
          {
            OFFSET 4.14528 8.04674 8.04672
            CHANNELS 3 Zrotation Xrotation Yrotation
            End Site
            {
              OFFSET 1 0 0
            }
          }
          JOINT rightEye
          {
            OFFSET -3.6576 8.04674 8.04672
            CHANNELS 3 Zrotation Xrotation Yrotation
            End Site
            {
              OFFSET 1 0 0
            }
          }
        }
      }
      JOINT rCollar
      {
        OFFSET -2.68224 19.2634 -4.8768
        CHANNELS 3 Zrotation Xrotation Yrotation
        JOINT rShldr
        {
          OFFSET -8.77824 -1.95073 1.46304
          CHANNELS 3 Zrotation Xrotation Yrotation
          JOINT rForeArm
          {
            OFFSET -28.1742 -1.7115 0.48768
            CHANNELS 3 Zrotation Xrotation Yrotation
            JOINT rHand
            {
              OFFSET -22.5879 0.773209 7.07136
              CHANNELS 3 Zrotation Xrotation Yrotation
              JOINT rThumb1
              {
                OFFSET -1.2192 -0.487915 3.41376
                CHANNELS 3 Zrotation Xrotation Yrotation
                JOINT rThumb2
                {
                  OFFSET -3.37035 -0.52449 3.41376
                  CHANNELS 3 Zrotation Xrotation Yrotation
                  End Site
                  {
                    OFFSET -1.78271 -1.18214 1.43049
                  }
                }
              }
              JOINT rIndex1
              {
                OFFSET -7.75947 0.938293 5.60832
                CHANNELS 3 Zrotation Xrotation Yrotation
                JOINT rIndex2
                {
                  OFFSET -2.54057 -0.884171 1.56538
                  CHANNELS 3 Zrotation Xrotation Yrotation
                  End Site
                  {
                    OFFSET -1.62519 -0.234802 1.16502
                  }
                }
              }
              JOINT rMid1
              {
                OFFSET -8.24714 1.18213 3.41376
                CHANNELS 3 Zrotation Xrotation Yrotation
                JOINT rMid2
                {
                  OFFSET -3.10165 -0.590103 1.0647
                  CHANNELS 3 Zrotation Xrotation Yrotation
                  End Site
                  {
                    OFFSET -2.48547 -0.328903 0.83742
                  }
                }
              }
              JOINT rRing1
              {
                OFFSET -8.82822 0.546677 1.51678
                CHANNELS 3 Zrotation Xrotation Yrotation
                JOINT rRing2
                {
                  OFFSET -2.60934 -0.819778 -0.0198488
                  CHANNELS 3 Zrotation Xrotation Yrotation
                  End Site
                  {
                    OFFSET -2.33842 -0.294052 0.168128
                  }
                }
              }
              JOINT rPinky1
              {
                OFFSET -8.27202 -0.0477905 -0.4584
                CHANNELS 3 Zrotation Xrotation Yrotation
                JOINT rPinky2
                {
                  OFFSET -1.82734 -0.647385 -0.700984
                  CHANNELS 3 Zrotation Xrotation Yrotation
                  End Site
                  {
                    OFFSET -1.69225 -0.51767 -0.607171
                  }
                }
              }
            }
          }
        }
      }
      JOINT lCollar
      {
        OFFSET 2.68224 19.2634 -4.8768
        CHANNELS 3 Zrotation Xrotation Yrotation
        JOINT lShldr
        {
          OFFSET 8.77824 -1.95073 1.46304
          CHANNELS 3 Zrotation Xrotation Yrotation
          JOINT lForeArm
          {
            OFFSET 28.1742 -1.7115 0.48768
            CHANNELS 3 Zrotation Xrotation Yrotation
            JOINT lHand
            {
              OFFSET 22.5879 0.773209 7.07136
              CHANNELS 3 Zrotation Xrotation Yrotation
              JOINT lThumb1
              {
                OFFSET 1.2192 -0.487915 3.41376
                CHANNELS 3 Zrotation Xrotation Yrotation
                JOINT lThumb2
                {
                  OFFSET 3.37035 -0.52449 3.41376
                  CHANNELS 3 Zrotation Xrotation Yrotation
                  End Site
                  {
                    OFFSET 1.78271 -1.18214 1.43049
                  }
                }
              }
              JOINT lIndex1
              {
                OFFSET 7.75947 0.938293 5.60832
                CHANNELS 3 Zrotation Xrotation Yrotation
                JOINT lIndex2
                {
                  OFFSET 2.54057 -0.884171 1.56538
                  CHANNELS 3 Zrotation Xrotation Yrotation
                  End Site
                  {
                    OFFSET 1.62519 -0.234802 1.16502
                  }
                }
              }
              JOINT lMid1
              {
                OFFSET 8.24714 1.18213 3.41376
                CHANNELS 3 Zrotation Xrotation Yrotation
                JOINT lMid2
                {
                  OFFSET 3.10165 -0.590103 1.0647
                  CHANNELS 3 Zrotation Xrotation Yrotation
                  End Site
                  {
                    OFFSET 2.48547 -0.328903 0.83742
                  }
                }
              }
              JOINT lRing1
              {
                OFFSET 8.82822 0.546677 1.51678
                CHANNELS 3 Zrotation Xrotation Yrotation
                JOINT lRing2
                {
                  OFFSET 2.60934 -0.819778 -0.0198488
                  CHANNELS 3 Zrotation Xrotation Yrotation
                  End Site
                  {
                    OFFSET 2.33842 -0.294052 0.168128
                  }
                }
              }
              JOINT lPinky1
              {
                OFFSET 8.27202 -0.0477905 -0.4584
                CHANNELS 3 Zrotation Xrotation Yrotation
                JOINT lPinky2
                {
                  OFFSET 1.82734 -0.647385 -0.700984
                  CHANNELS 3 Zrotation Xrotation Yrotation
                  End Site
                  {
                    OFFSET 1.69225 -0.51767 -0.607171
                  }
                }
              }
            }
          }
        }
      }
    }
  }
  JOINT rButtock
  {
    OFFSET -8.77824 4.35084 1.2192
    CHANNELS 3 Zrotation Xrotation Yrotation
    JOINT rThigh
    {
      OFFSET 0 -1.70687 -2.19456
      CHANNELS 3 Zrotation Xrotation Yrotation
      JOINT rShin
      {
        OFFSET 0 -36.8199 0.73152
        CHANNELS 3 Zrotation Xrotation Yrotation
        JOINT rFoot
        {
          OFFSET 0.73152 -45.1104 -5.12064
          CHANNELS 3 Zrotation Xrotation Yrotation
          End Site
          {
            OFFSET -1.1221 -3.69964 12.103
          }
        }
      }
    }
  }
  JOINT lButtock
  {
    OFFSET 8.77824 4.35084 1.2192
    CHANNELS 3 Zrotation Xrotation Yrotation
    JOINT lThigh
    {
      OFFSET 0 -1.70687 -2.19456
      CHANNELS 3 Zrotation Xrotation Yrotation
      JOINT lShin
      {
        OFFSET 0 -36.8199 0.73152
        CHANNELS 3 Zrotation Xrotation Yrotation
        JOINT lFoot
        {
          OFFSET -0.73152 -45.1104 -5.12064
          CHANNELS 3 Zrotation Xrotation Yrotation
          End Site
          {
            OFFSET 1.1221 -3.69964 12.103
          }
        }
      }
    }
  }
}
MOTION
Frames:	4
Frame Time:	0.00833333
-40.9791 68.3774 -187.668 0.0 0.0 0.0 -1.74432 -0.00324529 -0.0476284 -0.481552 0.00120933 -0.083393 3.01296e-14 7.95139e-16 -5.96354e-16 9.05619e-14 9.54166e-15 -1.79372e-15 -0.0 0.0 0.0 -0.0 0.0 0.0 1.53058e-14 2.98953e-17 -1.98785e-16 3.193e-13 8.82107e-16 -4.37326e-15 5.46534e-12 -1.61115e-12 -1.62208e-13 6.25774e-11 1.75713e-12 -1.13864e-12 1.47604e-10 3.16133e-13 -2.83069e-12 2.54894e-10 5.43875e-13 -4.89805e-12 1.47607e-10 3.16068e-13 -2.84024e-12 7.73091 5.47488 0.417314 1.47604e-10 3.1567e-13 -2.82115e-12 2.90554 0.965183 0.102902 1.47612e-10 3.16167e-13 -2.82433e-12 10.2786 0.731801 0.0259123 1.47595e-10 3.19248e-13 -2.81161e-12 2.22167 -0.733487 -0.20892 1.51093e-14 3.20307e-17 -4.96962e-16 3.15803e-13 5.96354e-16 -5.96354e-15 5.47378e-12 1.65429e-12 -1.65389e-13 6.25954e-11 -1.51302e-12 -1.11637e-12 1.47664e-10 3.06387e-13 -2.81161e-12 2.55016e-10 5.24792e-13 -4.86863e-12 1.4766e-10 3.07321e-13 -2.80207e-12 -7.73091 5.47488 -0.417314 1.47665e-10 3.06327e-13 -2.81797e-12 -2.90554 0.965183 -0.102902 1.47656e-10 3.06725e-13 -2.81718e-12 -10.2786 0.731801 -0.0259123 1.47669e-10 3.08116e-13 -2.82751e-12 -2.22167 -0.733487 0.20892 -2.03217e-16 0.0 -3.88251e-19 -0.87065 -1.92409 -0.00260534 -0.00879801 -2.07862 -0.0723904 -0.452332 3.99793 0.131479 2.03217e-16 0.0 3.88251e-19 -1.78852 -6.94308 0.17289 -0.00356591 7.0128 -0.0919766 0.487524 -0.0744281 -0.0538249
-36.6479 65.7734 -190.574 2.8475 60.8177 4.7958 -3.20193 4.15593 -4.12672 2.50821 -2.3152 -1.08231 -4.28675 6.84934 -4.88824 8.87657 -7.91839 -8.47885 -0.0 0.0 0.0 -0.0 0.0 0.0 -2.03097e-15 2.54212e-14 9.78949e-14 18.1607 8.11591 -1.41453 -5.17962 -2.58224 7.82667 0.000143509 -0.339204 -0.0476721 2.41149e-11 -1.1275e-09 5.19959e-10 4.05114e-11 -1.95268e-09 9.00465e-10 2.41171e-11 -1.1275e-09 5.19951e-10 7.73091 5.47488 0.417314 2.41156e-11 -1.1275e-09 5.1997e-10 2.90554 0.965183 0.102902 2.41221e-11 -1.1275e-09 5.19964e-10 10.2786 0.731801 0.0259123 2.41069e-11 -1.1275e-09 5.19976e-10 2.22167 -0.733487 -0.20892 -2.16968e-15 2.54258e-14 9.76363e-14 -21.4876 5.92148 0.144994 4.46999 -2.08204 -6.92721 -0.0450669 4.74944 -0.659488 -4.9462e-10 -6.95526e-10 4.24028e-10 -8.47991e-10 -1.20403e-09 7.42568e-10 -4.94622e-10 -6.95525e-10 4.2404e-10 -7.73091 5.47488 -0.417314 -4.94619e-10 -6.95526e-10 4.24023e-10 -2.90554 0.965183 -0.102902 -4.94626e-10 -6.95526e-10 4.24023e-10 -10.2786 0.731801 -0.0259123 -4.94612e-10 -6.95524e-10 4.24012e-10 -2.22167 -0.733487 0.20892 -2.03217e-16 0.0 -3.88251e-19 -7.92491 -14.0896 1.60865 -0.0354281 13.8152 0.114745 0.415412 -2.01807 5.16792 2.03217e-16 0.0 3.88251e-19 4.54589 -10.043 4.40095 -0.258908 20.612 -0.471005 1.20143 -6.4077 5.15149
-36.6486 65.8225 -190.576 3.1021 60.5554 5.0506 -4.08931 8.487 -8.5086 5.57885 -4.76279 -2.1433 -7.52032 13.9193 -10.2906 15.6646 -15.7047 -17.969 -0.0 0.0 0.0 -0.0 0.0 0.0 -2.20169e-14 5.26381e-14 2.10454e-13 37.8078 16.7111 -2.99811 -9.90897 -5.16218 16.1714 -0.00037021 -0.67348 -0.0946594 -1.12893e-10 -2.43598e-09 1.14377e-09 -1.97427e-10 -4.21881e-09 1.98075e-09 -1.12891e-10 -2.43598e-09 1.14376e-09 7.73091 5.47488 0.417314 -1.12891e-10 -2.43599e-09 1.14378e-09 2.90554 0.965183 0.102902 -1.12886e-10 -2.43598e-09 1.14377e-09 10.2786 0.731801 0.0259123 -1.129e-10 -2.43598e-09 1.14378e-09 2.22167 -0.733487 -0.20892 -2.20931e-14 5.26457e-14 2.10237e-13 -44.2501 12.2078 0.320627 8.68125 -4.2021 -14.3259 0.0278804 9.69857 -1.36231 -1.21985e-09 -1.50033e-09 8.98798e-10 -2.09349e-09 -2.59717e-09 1.5742e-09 -1.21985e-09 -1.50032e-09 8.98812e-10 -7.73091 5.47488 -0.417314 -1.21985e-09 -1.50033e-09 8.98793e-10 -2.90554 0.965183 -0.102902 -1.21986e-09 -1.50033e-09 8.98794e-10 -10.2786 0.731801 -0.0259123 -1.21984e-09 -1.50032e-09 8.98782e-10 -2.22167 -0.733487 0.20892 -2.03217e-16 0.0 -3.88251e-19 -14.5535 -26.9111 3.59919 -0.190884 30.6199 0.355321 2.48453 -8.26 10.5846 2.03217e-16 0.0 3.88251e-19 11.756 -13.2319 8.96674 -0.29088 34.9927 -0.989093 3.22945 -12.9282 10.8664
-36.6475 65.8804 -190.565 3.2097 60.3258 5.1256 -4.32083 12.2173 -12.5408 8.24401 -6.93918 -3.10023 -9.20907 19.9314 -15.5101 19.4211 -21.6081 -27.2473 -0.0 0.0 0.0 -0.0 0.0 0.0 -3.67045e-14 7.62038e-14 2.94082e-13 55.7821 24.2854 -4.60979 -13.4745 -7.16977 23.6521 -0.00126308 -1.01761 -0.143036 -2.22863e-10 -3.38313e-09 1.56554e-09 -3.88253e-10 -5.85913e-09 2.71119e-09 -2.22863e-10 -3.38313e-09 1.56553e-09 7.73091 5.47488 0.417314 -2.22861e-10 -3.38313e-09 1.56555e-09 2.90554 0.965183 0.102902 -2.22858e-10 -3.38313e-09 1.56554e-09 10.2786 0.731801 0.0259123 -2.2287e-10 -3.38313e-09 1.56555e-09 2.22167 -0.733487 -0.20892 -3.67276e-14 7.62134e-14 2.93903e-13 -64.5565 17.764 0.454324 11.9298 -5.88169 -20.8829 0.20158 14.2407 -2.0342 -1.77919e-09 -2.08719e-09 1.27771e-09 -3.054e-09 -3.61315e-09 2.23744e-09 -1.77919e-09 -2.08719e-09 1.27772e-09 -7.73091 5.47488 -0.417314 -1.77919e-09 -2.08719e-09 1.2777e-09 -2.90554 0.965183 -0.102902 -1.77919e-09 -2.08719e-09 1.2777e-09 -10.2786 0.731801 -0.0259123 -1.77917e-09 -2.08719e-09 1.27769e-09 -2.22167 -0.733487 0.20892 -2.03217e-16 0.0 -3.88251e-19 -19.4991 -38.2847 5.97397 -0.50087 45.6008 0.684577 5.35369 -13.5707 15.6804 2.03217e-16 0.0 3.88251e-19 18.6229 -15.9225 13.1708 0.0129101 47.7999 -1.69724 6.19062 -18.4326 16.3244
